<svg width="398" height="361" viewBox="0 0 398 361" fill="none" xmlns="http://www.w3.org/2000/svg">
<path d="M0.5 8.5H397.5V360.5H0.5V8.5Z" fill="#8F0000" stroke="black" stroke-linejoin="round"/>
<rect x="100.447" y="207.889" width="140" height="140" transform="rotate(-45 100.447 207.889)" fill="#FBF9EF"/>
<ellipse cx="150.298" cy="158.745" rx="70" ry="77.5" transform="rotate(-45 150.298 158.745)" fill="#FBF9EF"/>
<ellipse cx="248.586" cy="158.745" rx="70" ry="77.5" transform="rotate(-135 248.586 158.745)" fill="#FBF9EF"/>
<path d="M154.095 171V149.195H160.745C162.052 149.195 163.183 149.335 164.14 149.615C165.097 149.872 165.89 150.245 166.52 150.735C167.173 151.202 167.652 151.773 167.955 152.45C168.282 153.127 168.445 153.873 168.445 154.69C168.445 155.297 168.328 155.915 168.095 156.545C167.862 157.175 167.512 157.747 167.045 158.26C166.578 158.75 166.018 159.135 165.365 159.415C165.948 159.672 166.485 159.987 166.975 160.36C167.465 160.733 167.885 161.153 168.235 161.62C168.585 162.063 168.842 162.553 169.005 163.09C169.192 163.603 169.285 164.14 169.285 164.7C169.285 165.633 169.11 166.497 168.76 167.29C168.41 168.06 167.873 168.725 167.15 169.285C166.45 169.822 165.563 170.242 164.49 170.545C163.417 170.848 162.157 171 160.71 171H154.095ZM158.05 167.745H161.13C161.97 167.745 162.693 167.628 163.3 167.395C163.907 167.138 164.373 166.777 164.7 166.31C165.027 165.843 165.19 165.272 165.19 164.595C165.19 163.895 165.038 163.288 164.735 162.775C164.432 162.238 163.942 161.818 163.265 161.515C162.588 161.212 161.678 161.06 160.535 161.06H158.05V167.745ZM158.05 157.91H160.43C161.457 157.91 162.262 157.793 162.845 157.56C163.428 157.303 163.837 156.965 164.07 156.545C164.327 156.102 164.455 155.6 164.455 155.04C164.455 154.643 164.385 154.282 164.245 153.955C164.105 153.628 163.883 153.36 163.58 153.15C163.3 152.917 162.927 152.73 162.46 152.59C161.993 152.45 161.433 152.38 160.78 152.38H158.05V157.91ZM173.31 171V149.195H187.52V152.415H177.16V158.015H185.665V161.27H177.16V167.78H187.415V171H173.31ZM210.095 171V149.195H213.56L217.795 159.205L222.03 149.16H225.495V171H222.065V155.775L218.635 163.79H216.71L213.49 155.81V171H210.095ZM234.805 171V162.39L228.295 149.195H232.355L236.87 158.295L240.86 149.195H244.745L238.76 162.425V171H234.805ZM122.91 208.07L115.91 186.195H119.83L124.415 201.525L128.685 186.195H132.5L125.57 208.07H122.91ZM146.92 202.925H138.38L138.94 200.09H146.255L146.92 202.925ZM142.825 193.37L138.415 208H134.495L141.88 186.055H143.77L151.155 208H147.165L142.825 193.37ZM154.795 186.195H158.75H159.1V186.51C158.96 186.65 158.867 186.802 158.82 186.965C158.797 187.128 158.785 187.408 158.785 187.805V204.78H168.795V208H154.795V186.195ZM173.31 208V186.195H187.52V189.415H177.16V195.015H185.665V198.27H177.16V204.78H187.415V208H173.31ZM191.545 186.195H195.675L203.06 200.545L202.85 186.195H206.385H206.7V186.51C206.583 186.65 206.502 186.802 206.455 186.965C206.432 187.128 206.42 187.408 206.42 187.805V208H202.745L195.115 192.705V208H191.545V186.195ZM215.66 208V189.52H209.78V186.195H225.635V189.52H219.44V208H215.66ZM230.15 208V204.815H234.42V189.38H230.395V186.195H242.435V189.38H238.165V204.815H242.61V208H230.15ZM247.72 186.195H251.85L259.235 200.545L259.025 186.195H262.56H262.875V186.51C262.758 186.65 262.677 186.802 262.63 186.965C262.607 187.128 262.595 187.408 262.595 187.805V208H258.92L251.29 192.705V208H247.72V186.195ZM266.935 208V186.195H281.145V189.415H270.785V195.015H279.29V198.27H270.785V204.78H281.04V208H266.935Z" fill="black"/>
</svg>
