<svg width="398" height="353" viewBox="0 0 398 353" fill="none" xmlns="http://www.w3.org/2000/svg">
<path d="M0.5 0.5H397.5V352.5H0.5V0.5Z" fill="#8F0000" stroke="black" stroke-linejoin="round"/>
<path d="M29.4259 26.4259H367.574V326.245H29.4259V26.4259Z" fill="#FBF9EF" stroke="black" stroke-width="0.851759" stroke-linejoin="round"/>
<path d="M62.54 116.02C62.54 117.433 62.7733 118.5 63.24 119.22C63.7067 119.927 64.3267 120.28 65.1 120.28C65.7 120.28 66.2267 119.993 66.68 119.42C67.1467 118.847 67.4067 118.053 67.46 117.04L67.56 114.52C67.3067 113.68 66.94 113.08 66.46 112.72C65.98 112.36 65.48 112.18 64.96 112.18C64.2667 112.18 63.6867 112.513 63.22 113.18C62.7667 113.833 62.54 114.78 62.54 116.02ZM64.72 121.26C63.9867 121.26 63.32 121.08 62.72 120.72C62.1333 120.347 61.66 119.793 61.3 119.06C60.9533 118.327 60.78 117.427 60.78 116.36C60.78 115.293 60.98 114.38 61.38 113.62C61.7933 112.847 62.3133 112.26 62.94 111.86C63.58 111.447 64.2467 111.24 64.94 111.24C65.5133 111.24 66.0267 111.367 66.48 111.62C66.9467 111.873 67.3333 112.307 67.64 112.92L67.74 111.64L69.3 111.28L69.6 111.48C69.4667 112.32 69.34 113.18 69.22 114.06C69.1133 114.927 69.0267 115.747 68.96 116.52C68.9067 117.293 68.88 117.94 68.88 118.46C68.88 118.993 68.9467 119.367 69.08 119.58C69.2267 119.78 69.4533 119.88 69.76 119.88C69.8933 119.88 70.0333 119.867 70.18 119.84C70.3267 119.8 70.4667 119.753 70.6 119.7L70.78 120.2C70.62 120.507 70.3933 120.76 70.1 120.96C69.8067 121.16 69.4867 121.26 69.14 121.26C68.78 121.26 68.4667 121.127 68.2 120.86C67.9467 120.58 67.7667 120.047 67.66 119.26C67.3667 119.953 66.96 120.46 66.44 120.78C65.9333 121.1 65.36 121.26 64.72 121.26ZM74.9747 124.6L75.3547 120.84C75.1014 119.8 74.808 118.793 74.4747 117.82C74.1414 116.833 73.8147 115.86 73.4947 114.9C73.2147 114.073 72.968 113.5 72.7547 113.18C72.5547 112.86 72.2814 112.7 71.9347 112.7C71.7214 112.7 71.508 112.727 71.2947 112.78L71.0547 112.18C71.2814 111.94 71.5214 111.74 71.7747 111.58C72.028 111.42 72.3347 111.34 72.6947 111.34C72.9614 111.34 73.2147 111.4 73.4547 111.52C73.6947 111.627 73.9347 111.873 74.1747 112.26C74.4147 112.647 74.6614 113.24 74.9147 114.04C75.1147 114.653 75.3347 115.413 75.5747 116.32C75.828 117.213 76.1014 118.313 76.3947 119.62C76.8614 118.753 77.2547 117.953 77.5747 117.22C77.908 116.487 78.228 115.7 78.5347 114.86C78.4414 114.167 78.3814 113.667 78.3547 113.36C78.328 113.053 78.3147 112.8 78.3147 112.6C78.3147 112.147 78.408 111.807 78.5947 111.58C78.7814 111.353 79.0347 111.24 79.3547 111.24C79.5547 111.24 79.7014 111.267 79.7947 111.32C79.9014 111.36 79.9947 111.413 80.0747 111.48C80.1014 111.587 80.1214 111.707 80.1347 111.84C80.1614 111.96 80.1747 112.133 80.1747 112.36C80.1747 112.893 80.068 113.5 79.8547 114.18C79.6547 114.86 79.3814 115.58 79.0347 116.34C78.688 117.087 78.308 117.84 77.8947 118.6C77.4814 119.36 77.068 120.087 76.6547 120.78L76.7347 124.44L75.1547 124.8L74.9747 124.6ZM83.4189 116.02C83.4189 117.433 83.6522 118.5 84.1189 119.22C84.5856 119.927 85.2056 120.28 85.9789 120.28C86.5789 120.28 87.1056 119.993 87.5589 119.42C88.0256 118.847 88.2856 118.053 88.3389 117.04L88.4389 114.52C88.1856 113.68 87.8189 113.08 87.3389 112.72C86.8589 112.36 86.3589 112.18 85.8389 112.18C85.1456 112.18 84.5656 112.513 84.0989 113.18C83.6456 113.833 83.4189 114.78 83.4189 116.02ZM85.5989 121.26C84.8656 121.26 84.1989 121.08 83.5989 120.72C83.0122 120.347 82.5389 119.793 82.1789 119.06C81.8322 118.327 81.6589 117.427 81.6589 116.36C81.6589 115.293 81.8589 114.38 82.2589 113.62C82.6722 112.847 83.1922 112.26 83.8189 111.86C84.4589 111.447 85.1256 111.24 85.8189 111.24C86.3922 111.24 86.9056 111.367 87.3589 111.62C87.8256 111.873 88.2122 112.307 88.5189 112.92L88.6189 111.64L90.1789 111.28L90.4789 111.48C90.3456 112.32 90.2189 113.18 90.0989 114.06C89.9922 114.927 89.9056 115.747 89.8389 116.52C89.7856 117.293 89.7589 117.94 89.7589 118.46C89.7589 118.993 89.8256 119.367 89.9589 119.58C90.1056 119.78 90.3322 119.88 90.6389 119.88C90.7722 119.88 90.9122 119.867 91.0589 119.84C91.2056 119.8 91.3456 119.753 91.4789 119.7L91.6589 120.2C91.4989 120.507 91.2722 120.76 90.9789 120.96C90.6856 121.16 90.3656 121.26 90.0189 121.26C89.6589 121.26 89.3456 121.127 89.0789 120.86C88.8256 120.58 88.6456 120.047 88.5389 119.26C88.2456 119.953 87.8389 120.46 87.3189 120.78C86.8122 121.1 86.2389 121.26 85.5989 121.26ZM92.4736 113.3L92.3136 112.56C92.6469 112.293 92.9736 112.087 93.2936 111.94C93.6269 111.78 94.0136 111.667 94.4536 111.6C94.8936 111.533 95.4603 111.5 96.1536 111.5H103.154L103.234 112.94L100.654 112.86L100.814 118.2C100.84 118.867 100.954 119.313 101.154 119.54C101.354 119.767 101.647 119.88 102.034 119.88C102.167 119.88 102.314 119.867 102.474 119.84C102.634 119.8 102.78 119.753 102.914 119.7L103.074 120.2C102.834 120.56 102.574 120.827 102.294 121C102.027 121.173 101.694 121.26 101.294 121.26C100.6 121.26 100.087 121.06 99.7536 120.66C99.4336 120.247 99.2736 119.627 99.2736 118.8C99.2736 117.973 99.2936 117.033 99.3336 115.98C99.3869 114.913 99.4403 113.867 99.4936 112.84H96.2736C96.2603 113.853 96.2403 114.867 96.2136 115.88C96.2003 116.893 96.1603 117.887 96.0936 118.86C96.0269 119.713 95.8203 120.327 95.4736 120.7C95.1269 121.073 94.6603 121.26 94.0736 121.26C93.7136 121.26 93.4203 121.173 93.1936 121C92.9669 120.813 92.8536 120.567 92.8536 120.26C92.8536 120.02 92.8869 119.833 92.9536 119.7C93.0336 119.553 93.1403 119.427 93.2736 119.32C93.7803 119.227 94.3669 119.147 95.0336 119.08C95.1403 118.053 95.2136 117.027 95.2536 116C95.3069 114.96 95.3469 113.92 95.3736 112.88L92.4736 113.3ZM111.569 124.6L111.829 120.78L112.029 114.92C112.056 114.133 111.896 113.567 111.549 113.22C111.216 112.86 110.756 112.68 110.169 112.68C109.649 112.68 109.129 112.88 108.609 113.28C108.102 113.667 107.702 114.127 107.409 114.66L107.509 121L105.869 121.2L105.669 121L105.929 117.38L105.989 113.6C105.989 113.293 105.936 113.06 105.829 112.9C105.736 112.727 105.542 112.64 105.249 112.64C105.116 112.64 104.982 112.647 104.849 112.66C104.729 112.673 104.602 112.693 104.469 112.72L104.249 112.12C104.449 111.867 104.662 111.667 104.889 111.52C105.116 111.36 105.396 111.28 105.729 111.28C106.262 111.28 106.656 111.467 106.909 111.84C107.176 112.213 107.336 112.8 107.389 113.6C107.629 113.107 107.936 112.687 108.309 112.34C108.682 111.993 109.076 111.727 109.489 111.54C109.902 111.34 110.289 111.24 110.649 111.24C111.436 111.24 112.062 111.5 112.529 112.02C112.996 112.527 113.236 113.433 113.249 114.74L113.409 124.44L111.769 124.8L111.569 124.6ZM114.935 113.3L114.775 112.56C115.308 112.133 115.881 111.853 116.495 111.72C117.121 111.573 117.961 111.5 119.015 111.5H123.595L123.675 112.94L119.855 112.86L119.935 118.2C119.948 118.867 120.055 119.313 120.255 119.54C120.468 119.767 120.768 119.88 121.155 119.88C121.288 119.88 121.435 119.867 121.595 119.84C121.755 119.8 121.901 119.753 122.035 119.7L122.195 120.2C121.955 120.56 121.695 120.827 121.415 121C121.148 121.173 120.815 121.26 120.415 121.26C119.068 121.26 118.395 120.44 118.395 118.8C118.395 117.973 118.435 117.04 118.515 116C118.595 114.96 118.681 113.927 118.775 112.9L114.935 113.3ZM128.758 121.26C127.692 121.26 126.805 121.04 126.098 120.6C125.392 120.147 125.038 119.5 125.038 118.66C125.038 117.993 125.272 117.427 125.738 116.96C126.218 116.493 126.845 116.18 127.618 116.02C126.898 115.86 126.345 115.58 125.958 115.18C125.585 114.78 125.398 114.32 125.398 113.8C125.398 113.067 125.712 112.46 126.338 111.98C126.965 111.487 127.965 111.24 129.338 111.24C130.045 111.24 130.672 111.333 131.218 111.52C131.765 111.693 132.158 111.94 132.398 112.26C132.398 112.513 132.318 112.74 132.158 112.94C131.998 113.14 131.765 113.24 131.458 113.24C131.245 113.24 131.025 113.193 130.798 113.1C130.585 112.993 130.312 112.813 129.978 112.56L129.198 111.98C128.478 111.993 127.925 112.147 127.538 112.44C127.152 112.733 126.958 113.133 126.958 113.64C126.958 114.16 127.165 114.567 127.578 114.86C127.992 115.153 128.625 115.3 129.478 115.3C129.678 115.3 129.878 115.3 130.078 115.3C130.278 115.287 130.525 115.273 130.818 115.26V116.58C130.485 116.553 130.245 116.54 130.098 116.54C129.952 116.54 129.805 116.54 129.658 116.54C128.898 116.54 128.305 116.627 127.878 116.8C127.465 116.973 127.172 117.2 126.998 117.48C126.838 117.747 126.758 118.027 126.758 118.32C126.758 118.813 126.958 119.22 127.358 119.54C127.772 119.86 128.372 120.02 129.158 120.02C129.652 120.02 130.158 119.967 130.678 119.86C131.212 119.753 131.785 119.513 132.398 119.14L132.718 119.66C132.225 120.193 131.625 120.593 130.918 120.86C130.225 121.127 129.505 121.26 128.758 121.26ZM128.818 109.88L129.938 106.48C130.045 106.173 130.178 105.96 130.338 105.84C130.498 105.72 130.665 105.66 130.838 105.66C131.078 105.66 131.272 105.733 131.418 105.88C131.578 106.013 131.658 106.193 131.658 106.42C131.658 106.593 131.625 106.747 131.558 106.88C131.492 107.013 131.378 107.207 131.218 107.46L129.438 110.16L128.818 109.88ZM138.47 113.3L138.31 112.56C138.643 112.293 138.97 112.087 139.29 111.94C139.623 111.78 140.01 111.667 140.45 111.6C140.89 111.533 141.456 111.5 142.15 111.5H149.15L149.23 112.94L146.65 112.86L146.81 118.2C146.836 118.867 146.95 119.313 147.15 119.54C147.35 119.767 147.643 119.88 148.03 119.88C148.163 119.88 148.31 119.867 148.47 119.84C148.63 119.8 148.776 119.753 148.91 119.7L149.07 120.2C148.83 120.56 148.57 120.827 148.29 121C148.023 121.173 147.69 121.26 147.29 121.26C146.596 121.26 146.083 121.06 145.75 120.66C145.43 120.247 145.27 119.627 145.27 118.8C145.27 117.973 145.29 117.033 145.33 115.98C145.383 114.913 145.436 113.867 145.49 112.84H142.27C142.256 113.853 142.236 114.867 142.21 115.88C142.196 116.893 142.156 117.887 142.09 118.86C142.023 119.713 141.816 120.327 141.47 120.7C141.123 121.073 140.656 121.26 140.07 121.26C139.71 121.26 139.416 121.173 139.19 121C138.963 120.813 138.85 120.567 138.85 120.26C138.85 120.02 138.883 119.833 138.95 119.7C139.03 119.553 139.136 119.427 139.27 119.32C139.776 119.227 140.363 119.147 141.03 119.08C141.136 118.053 141.21 117.027 141.25 116C141.303 114.96 141.343 113.92 141.37 112.88L138.47 113.3ZM152.325 116.02C152.325 117.433 152.558 118.5 153.025 119.22C153.492 119.927 154.112 120.28 154.885 120.28C155.485 120.28 156.012 119.993 156.465 119.42C156.932 118.847 157.192 118.053 157.245 117.04L157.345 114.52C157.092 113.68 156.725 113.08 156.245 112.72C155.765 112.36 155.265 112.18 154.745 112.18C154.052 112.18 153.472 112.513 153.005 113.18C152.552 113.833 152.325 114.78 152.325 116.02ZM154.505 121.26C153.772 121.26 153.105 121.08 152.505 120.72C151.918 120.347 151.445 119.793 151.085 119.06C150.738 118.327 150.565 117.427 150.565 116.36C150.565 115.293 150.765 114.38 151.165 113.62C151.578 112.847 152.098 112.26 152.725 111.86C153.365 111.447 154.032 111.24 154.725 111.24C155.298 111.24 155.812 111.367 156.265 111.62C156.732 111.873 157.118 112.307 157.425 112.92L157.525 111.64L159.085 111.28L159.385 111.48C159.252 112.32 159.125 113.18 159.005 114.06C158.898 114.927 158.812 115.747 158.745 116.52C158.692 117.293 158.665 117.94 158.665 118.46C158.665 118.993 158.732 119.367 158.865 119.58C159.012 119.78 159.238 119.88 159.545 119.88C159.678 119.88 159.818 119.867 159.965 119.84C160.112 119.8 160.252 119.753 160.385 119.7L160.565 120.2C160.405 120.507 160.178 120.76 159.885 120.96C159.592 121.16 159.272 121.26 158.925 121.26C158.565 121.26 158.252 121.127 157.985 120.86C157.732 120.58 157.552 120.047 157.445 119.26C157.152 119.953 156.745 120.46 156.225 120.78C155.718 121.1 155.145 121.26 154.505 121.26ZM165.24 121.06C164.947 119.873 164.613 118.747 164.24 117.68C163.867 116.613 163.487 115.52 163.1 114.4C162.887 113.787 162.673 113.353 162.46 113.1C162.26 112.833 162.007 112.7 161.7 112.7C161.567 112.7 161.447 112.707 161.34 112.72C161.247 112.733 161.153 112.753 161.06 112.78L160.84 112.18C161.36 111.62 161.927 111.34 162.54 111.34C162.993 111.34 163.393 111.56 163.74 112C164.1 112.427 164.433 113.153 164.74 114.18C165.06 115.233 165.34 116.213 165.58 117.12C165.833 118.013 166.027 118.847 166.16 119.62C166.627 118.753 167.02 117.96 167.34 117.24C167.673 116.507 167.993 115.733 168.3 114.92C168.22 114.307 168.167 113.827 168.14 113.48C168.113 113.133 168.1 112.84 168.1 112.6C168.1 112.147 168.193 111.807 168.38 111.58C168.567 111.353 168.82 111.24 169.14 111.24C169.34 111.24 169.487 111.267 169.58 111.32C169.687 111.36 169.78 111.413 169.86 111.48C169.887 111.587 169.907 111.707 169.92 111.84C169.947 111.96 169.96 112.133 169.96 112.36C169.96 112.893 169.847 113.513 169.62 114.22C169.407 114.927 169.12 115.673 168.76 116.46C168.4 117.233 168 118.013 167.56 118.8C167.12 119.573 166.68 120.307 166.24 121L165.24 121.06ZM173.204 116.02C173.204 117.433 173.437 118.5 173.904 119.22C174.371 119.927 174.991 120.28 175.764 120.28C176.364 120.28 176.891 119.993 177.344 119.42C177.811 118.847 178.071 118.053 178.124 117.04L178.224 114.52C177.971 113.68 177.604 113.08 177.124 112.72C176.644 112.36 176.144 112.18 175.624 112.18C174.931 112.18 174.351 112.513 173.884 113.18C173.431 113.833 173.204 114.78 173.204 116.02ZM175.384 121.26C174.651 121.26 173.984 121.08 173.384 120.72C172.797 120.347 172.324 119.793 171.964 119.06C171.617 118.327 171.444 117.427 171.444 116.36C171.444 115.293 171.644 114.38 172.044 113.62C172.457 112.847 172.977 112.26 173.604 111.86C174.244 111.447 174.911 111.24 175.604 111.24C176.177 111.24 176.691 111.367 177.144 111.62C177.611 111.873 177.997 112.307 178.304 112.92L178.404 111.64L179.964 111.28L180.264 111.48C180.131 112.32 180.004 113.18 179.884 114.06C179.777 114.927 179.691 115.747 179.624 116.52C179.571 117.293 179.544 117.94 179.544 118.46C179.544 118.993 179.611 119.367 179.744 119.58C179.891 119.78 180.117 119.88 180.424 119.88C180.557 119.88 180.697 119.867 180.844 119.84C180.991 119.8 181.131 119.753 181.264 119.7L181.444 120.2C181.284 120.507 181.057 120.76 180.764 120.96C180.471 121.16 180.151 121.26 179.804 121.26C179.444 121.26 179.131 121.127 178.864 120.86C178.611 120.58 178.431 120.047 178.324 119.26C178.031 119.953 177.624 120.46 177.104 120.78C176.597 121.1 176.024 121.26 175.384 121.26ZM185.639 124.6L186.019 120.84C185.765 119.8 185.472 118.793 185.139 117.82C184.805 116.833 184.479 115.86 184.159 114.9C183.879 114.073 183.632 113.5 183.419 113.18C183.219 112.86 182.945 112.7 182.599 112.7C182.385 112.7 182.172 112.727 181.959 112.78L181.719 112.18C181.945 111.94 182.185 111.74 182.439 111.58C182.692 111.42 182.999 111.34 183.359 111.34C183.625 111.34 183.879 111.4 184.119 111.52C184.359 111.627 184.599 111.873 184.839 112.26C185.079 112.647 185.325 113.24 185.579 114.04C185.779 114.653 185.999 115.413 186.239 116.32C186.492 117.213 186.765 118.313 187.059 119.62C187.525 118.753 187.919 117.953 188.239 117.22C188.572 116.487 188.892 115.7 189.199 114.86C189.105 114.167 189.045 113.667 189.019 113.36C188.992 113.053 188.979 112.8 188.979 112.6C188.979 112.147 189.072 111.807 189.259 111.58C189.445 111.353 189.699 111.24 190.019 111.24C190.219 111.24 190.365 111.267 190.459 111.32C190.565 111.36 190.659 111.413 190.739 111.48C190.765 111.587 190.785 111.707 190.799 111.84C190.825 111.96 190.839 112.133 190.839 112.36C190.839 112.893 190.732 113.5 190.519 114.18C190.319 114.86 190.045 115.58 189.699 116.34C189.352 117.087 188.972 117.84 188.559 118.6C188.145 119.36 187.732 120.087 187.319 120.78L187.399 124.44L185.819 124.8L185.639 124.6ZM195.363 121.26C194.75 121.26 194.296 121.04 194.003 120.6C193.723 120.16 193.576 119.46 193.563 118.5L193.503 111.62L195.243 111.26L195.443 111.46C195.35 112.78 195.263 113.86 195.183 114.7C195.116 115.54 195.07 116.233 195.043 116.78C195.016 117.327 195.003 117.827 195.003 118.28C195.03 118.92 195.116 119.347 195.263 119.56C195.423 119.773 195.656 119.88 195.963 119.88C196.11 119.88 196.256 119.867 196.403 119.84C196.55 119.8 196.69 119.753 196.823 119.7L196.983 120.2C196.823 120.493 196.603 120.747 196.323 120.96C196.043 121.16 195.723 121.26 195.363 121.26ZM201.905 121.26C201.225 121.26 200.605 121.1 200.045 120.78C199.498 120.447 199.065 119.96 198.745 119.32C198.425 118.667 198.265 117.873 198.265 116.94C198.265 115.9 198.445 115.013 198.805 114.28C199.165 113.547 199.632 112.933 200.205 112.44C200.792 111.947 201.425 111.547 202.105 111.24L202.525 111.94C201.992 112.287 201.538 112.667 201.165 113.08C200.792 113.493 200.505 114.007 200.305 114.62C200.118 115.233 200.025 116.013 200.025 116.96C200.025 117.96 200.178 118.74 200.485 119.3C200.805 119.86 201.312 120.14 202.005 120.14C202.525 120.14 202.978 119.947 203.365 119.56C203.765 119.173 203.965 118.527 203.965 117.62C203.965 116.927 203.905 115.813 203.785 114.28L205.445 114.1L205.625 114.2C205.572 114.88 205.525 115.527 205.485 116.14C205.445 116.753 205.425 117.247 205.425 117.62C205.425 119.3 206.052 120.14 207.305 120.14C207.972 120.14 208.492 119.86 208.865 119.3C209.238 118.727 209.425 117.953 209.425 116.98C209.425 116.007 209.325 115.213 209.125 114.6C208.925 113.987 208.638 113.48 208.265 113.08C207.905 112.667 207.458 112.287 206.925 111.94L207.325 111.24C207.992 111.547 208.618 111.947 209.205 112.44C209.792 112.933 210.265 113.547 210.625 114.28C210.985 115.013 211.165 115.907 211.165 116.96C211.165 117.813 211.005 118.567 210.685 119.22C210.365 119.86 209.918 120.36 209.345 120.72C208.785 121.08 208.132 121.26 207.385 121.26C206.692 121.26 206.112 121.067 205.645 120.68C205.178 120.293 204.845 119.693 204.645 118.88C204.458 119.72 204.118 120.327 203.625 120.7C203.145 121.073 202.572 121.26 201.905 121.26ZM204.245 109.88L205.365 106.48C205.472 106.173 205.605 105.96 205.765 105.84C205.925 105.72 206.092 105.66 206.265 105.66C206.505 105.66 206.698 105.733 206.845 105.88C207.005 106.013 207.085 106.193 207.085 106.42C207.085 106.593 207.052 106.747 206.985 106.88C206.918 107.013 206.805 107.207 206.645 107.46L204.865 110.16L204.245 109.88ZM212.298 113.3L212.138 112.56C212.671 112.133 213.244 111.853 213.858 111.72C214.484 111.573 215.324 111.5 216.378 111.5H220.958L221.038 112.94L217.218 112.86L217.298 118.2C217.311 118.867 217.418 119.313 217.618 119.54C217.831 119.767 218.131 119.88 218.518 119.88C218.651 119.88 218.798 119.867 218.958 119.84C219.118 119.8 219.264 119.753 219.398 119.7L219.558 120.2C219.318 120.56 219.058 120.827 218.778 121C218.511 121.173 218.178 121.26 217.778 121.26C216.431 121.26 215.758 120.44 215.758 118.8C215.758 117.973 215.798 117.04 215.878 116C215.958 114.96 216.044 113.927 216.138 112.9L212.298 113.3ZM229.382 124.6L229.642 120.78L229.842 114.92C229.868 114.133 229.708 113.567 229.362 113.22C229.028 112.86 228.568 112.68 227.982 112.68C227.462 112.68 226.942 112.88 226.422 113.28C225.915 113.667 225.515 114.127 225.222 114.66L225.322 121L223.682 121.2L223.482 121L223.742 117.38L223.802 113.6C223.802 113.293 223.748 113.06 223.642 112.9C223.548 112.727 223.355 112.64 223.062 112.64C222.928 112.64 222.795 112.647 222.662 112.66C222.542 112.673 222.415 112.693 222.282 112.72L222.062 112.12C222.262 111.867 222.475 111.667 222.702 111.52C222.928 111.36 223.208 111.28 223.542 111.28C224.075 111.28 224.468 111.467 224.722 111.84C224.988 112.213 225.148 112.8 225.202 113.6C225.442 113.107 225.748 112.687 226.122 112.34C226.495 111.993 226.888 111.727 227.302 111.54C227.715 111.34 228.102 111.24 228.462 111.24C229.248 111.24 229.875 111.5 230.342 112.02C230.808 112.527 231.048 113.433 231.062 114.74L231.222 124.44L229.582 124.8L229.382 124.6ZM236.858 120.42C236.858 121.22 236.664 121.96 236.278 122.64C235.904 123.32 235.424 123.9 234.838 124.38C234.251 124.873 233.638 125.24 232.998 125.48L232.718 124.8C233.398 124.453 233.998 124.033 234.518 123.54C235.038 123.047 235.418 122.427 235.658 121.68L234.918 121.1C234.651 120.887 234.458 120.66 234.338 120.42C234.218 120.167 234.158 119.913 234.158 119.66C234.158 119.313 234.258 119.02 234.458 118.78C234.671 118.527 234.984 118.4 235.398 118.4C235.584 118.4 235.771 118.44 235.958 118.52C236.158 118.6 236.384 118.753 236.638 118.98C236.718 119.233 236.771 119.48 236.798 119.72C236.838 119.947 236.858 120.18 236.858 120.42ZM61.58 149.6L62 143.96L61.7 136.62L63.4 136.24L63.62 136.44C63.5667 137.547 63.5133 138.5 63.46 139.3C63.4067 140.1 63.36 140.8 63.32 141.4C63.28 142 63.2533 142.553 63.24 143.06C63.5467 143.727 63.8933 144.173 64.28 144.4C64.6667 144.613 65.0467 144.72 65.42 144.72C65.9267 144.72 66.3733 144.58 66.76 144.3C67.16 144.02 67.5267 143.453 67.86 142.6L67.74 136.62L69.46 136.24L69.66 136.44C69.5533 137.773 69.46 138.86 69.38 139.7C69.3133 140.54 69.26 141.233 69.22 141.78C69.1933 142.313 69.1867 142.813 69.2 143.28C69.2267 143.907 69.3 144.333 69.42 144.56C69.54 144.773 69.7667 144.88 70.1 144.88C70.2333 144.88 70.3733 144.867 70.52 144.84C70.6667 144.8 70.8 144.753 70.92 144.7L71.1 145.2C70.94 145.493 70.72 145.747 70.44 145.96C70.16 146.16 69.82 146.26 69.42 146.26C68.8867 146.26 68.5133 146.06 68.3 145.66C68.0867 145.26 67.9533 144.693 67.9 143.96C67.5667 144.773 67.1733 145.36 66.72 145.72C66.2667 146.08 65.7667 146.26 65.22 146.26C64.8333 146.26 64.4267 146.133 64 145.88C63.5867 145.613 63.2467 145.227 62.98 144.72L63.48 149.44L61.82 149.8L61.58 149.6ZM76.4267 146.26C75.6534 146.26 74.9401 146.08 74.2867 145.72C73.6467 145.347 73.1334 144.793 72.7467 144.06C72.3601 143.327 72.1667 142.427 72.1667 141.36C72.1667 140.28 72.3867 139.36 72.8267 138.6C73.2667 137.84 73.8401 137.26 74.5467 136.86C75.2534 136.447 75.9934 136.24 76.7667 136.24C77.5401 136.24 78.2467 136.433 78.8867 136.82C79.5267 137.193 80.0334 137.747 80.4067 138.48C80.7934 139.2 80.9867 140.08 80.9867 141.12C80.9867 142.187 80.7667 143.107 80.3267 143.88C79.8867 144.653 79.3201 145.247 78.6267 145.66C77.9334 146.06 77.2001 146.26 76.4267 146.26ZM76.6867 145.34C77.2601 145.34 77.7334 145.173 78.1067 144.84C78.4934 144.507 78.7801 144.06 78.9667 143.5C79.1534 142.927 79.2467 142.293 79.2467 141.6C79.2467 140.16 78.9801 139.06 78.4467 138.3C77.9134 137.54 77.2534 137.16 76.4667 137.16C75.8934 137.16 75.4201 137.333 75.0467 137.68C74.6734 138.027 74.3934 138.487 74.2067 139.06C74.0201 139.633 73.9267 140.267 73.9267 140.96C73.9267 142.413 74.1934 143.507 74.7267 144.24C75.2734 144.973 75.9267 145.34 76.6867 145.34ZM87.102 146.26C85.9687 146.26 85.0887 145.967 84.462 145.38C83.8354 144.793 83.522 143.833 83.522 142.5C83.522 141.86 83.5487 141.193 83.602 140.5C83.6687 139.807 83.702 139.233 83.702 138.78C83.702 138.407 83.6554 138.127 83.562 137.94C83.482 137.753 83.2687 137.66 82.922 137.66C82.802 137.66 82.6754 137.667 82.542 137.68C82.422 137.693 82.3087 137.713 82.202 137.74L81.962 137.14C82.1487 136.887 82.3887 136.687 82.682 136.54C82.9887 136.38 83.3354 136.3 83.722 136.3C84.1487 136.3 84.4754 136.387 84.702 136.56C84.9287 136.72 85.082 136.927 85.162 137.18C85.2554 137.42 85.302 137.673 85.302 137.94C85.302 138.74 85.262 139.5 85.182 140.22C85.1154 140.94 85.082 141.627 85.082 142.28C85.082 143.24 85.2354 143.96 85.542 144.44C85.862 144.92 86.4487 145.16 87.302 145.16C88.1287 145.16 88.8087 144.847 89.342 144.22C89.8887 143.58 90.162 142.673 90.162 141.5C90.162 141.34 90.1554 141.173 90.142 141C90.142 140.827 90.1354 140.633 90.122 140.42C89.802 139.74 89.5487 139.213 89.362 138.84C89.1887 138.453 89.0687 138.153 89.002 137.94C88.9354 137.727 88.902 137.527 88.902 137.34C88.902 136.993 89.002 136.727 89.202 136.54C89.402 136.34 89.6487 136.24 89.942 136.24C90.2487 136.24 90.4954 136.333 90.682 136.52C90.882 137.093 91.0087 137.767 91.062 138.54C91.1287 139.3 91.162 140.1 91.162 140.94C91.162 142.233 90.9754 143.273 90.602 144.06C90.2287 144.833 89.7354 145.393 89.122 145.74C88.5087 146.087 87.8354 146.26 87.102 146.26ZM101.258 146.26C100.192 146.26 99.3049 146.04 98.5983 145.6C97.8916 145.147 97.5383 144.5 97.5383 143.66C97.5383 142.993 97.7716 142.427 98.2383 141.96C98.7183 141.493 99.3449 141.18 100.118 141.02C99.3983 140.86 98.8449 140.58 98.4583 140.18C98.0849 139.78 97.8983 139.32 97.8983 138.8C97.8983 138.067 98.2116 137.46 98.8383 136.98C99.4649 136.487 100.465 136.24 101.838 136.24C102.545 136.24 103.172 136.333 103.718 136.52C104.265 136.693 104.658 136.94 104.898 137.26C104.898 137.513 104.818 137.74 104.658 137.94C104.498 138.14 104.265 138.24 103.958 138.24C103.745 138.24 103.525 138.193 103.298 138.1C103.085 137.993 102.812 137.813 102.478 137.56L101.698 136.98C100.978 136.993 100.425 137.147 100.038 137.44C99.6516 137.733 99.4583 138.133 99.4583 138.64C99.4583 139.16 99.6649 139.567 100.078 139.86C100.492 140.153 101.125 140.3 101.978 140.3C102.178 140.3 102.378 140.3 102.578 140.3C102.778 140.287 103.025 140.273 103.318 140.26V141.58C102.985 141.553 102.745 141.54 102.598 141.54C102.452 141.54 102.305 141.54 102.158 141.54C101.398 141.54 100.805 141.627 100.378 141.8C99.9649 141.973 99.6716 142.2 99.4983 142.48C99.3383 142.747 99.2583 143.027 99.2583 143.32C99.2583 143.813 99.4583 144.22 99.8583 144.54C100.272 144.86 100.872 145.02 101.658 145.02C102.152 145.02 102.658 144.967 103.178 144.86C103.712 144.753 104.285 144.513 104.898 144.14L105.218 144.66C104.725 145.193 104.125 145.593 103.418 145.86C102.725 146.127 102.005 146.26 101.258 146.26ZM106.422 149.58L106.282 149.32L110.222 142.38L108.962 139.56C108.722 139.013 108.508 138.607 108.322 138.34C108.135 138.06 107.942 137.873 107.742 137.78C107.555 137.687 107.315 137.64 107.022 137.64C106.848 137.64 106.688 137.653 106.542 137.68C106.408 137.707 106.255 137.753 106.082 137.82L105.862 137.12C106.062 136.88 106.288 136.68 106.542 136.52C106.795 136.36 107.068 136.28 107.362 136.28C107.908 136.28 108.362 136.487 108.722 136.9C109.082 137.313 109.422 137.953 109.742 138.82L110.682 141.5L113.302 136.36L114.762 136.46L114.922 136.72L111.302 143.06L112.582 146.14C112.928 146.993 113.268 147.58 113.602 147.9C113.948 148.233 114.328 148.4 114.742 148.4C114.915 148.4 115.075 148.38 115.222 148.34C115.368 148.313 115.515 148.273 115.662 148.22L115.822 148.76C115.462 149.467 114.915 149.82 114.182 149.82C113.528 149.82 113.022 149.56 112.662 149.04C112.315 148.52 111.995 147.807 111.702 146.9L110.802 143.98L107.802 149.76L106.422 149.58ZM119.852 146.26C118.785 146.26 117.899 146.04 117.192 145.6C116.485 145.147 116.132 144.5 116.132 143.66C116.132 142.993 116.365 142.427 116.832 141.96C117.312 141.493 117.939 141.18 118.712 141.02C117.992 140.86 117.439 140.58 117.052 140.18C116.679 139.78 116.492 139.32 116.492 138.8C116.492 138.067 116.805 137.46 117.432 136.98C118.059 136.487 119.059 136.24 120.432 136.24C121.139 136.24 121.765 136.333 122.312 136.52C122.859 136.693 123.252 136.94 123.492 137.26C123.492 137.513 123.412 137.74 123.252 137.94C123.092 138.14 122.859 138.24 122.552 138.24C122.339 138.24 122.119 138.193 121.892 138.1C121.679 137.993 121.405 137.813 121.072 137.56L120.292 136.98C119.572 136.993 119.019 137.147 118.632 137.44C118.245 137.733 118.052 138.133 118.052 138.64C118.052 139.16 118.259 139.567 118.672 139.86C119.085 140.153 119.719 140.3 120.572 140.3C120.772 140.3 120.972 140.3 121.172 140.3C121.372 140.287 121.619 140.273 121.912 140.26V141.58C121.579 141.553 121.339 141.54 121.192 141.54C121.045 141.54 120.899 141.54 120.752 141.54C119.992 141.54 119.399 141.627 118.972 141.8C118.559 141.973 118.265 142.2 118.092 142.48C117.932 142.747 117.852 143.027 117.852 143.32C117.852 143.813 118.052 144.22 118.452 144.54C118.865 144.86 119.465 145.02 120.252 145.02C120.745 145.02 121.252 144.967 121.772 144.86C122.305 144.753 122.879 144.513 123.492 144.14L123.812 144.66C123.319 145.193 122.719 145.593 122.012 145.86C121.319 146.127 120.599 146.26 119.852 146.26ZM127.98 146.26C127.367 146.26 126.913 146.04 126.62 145.6C126.34 145.16 126.193 144.46 126.18 143.5L126.12 136.62L127.86 136.26L128.06 136.46C127.967 137.78 127.88 138.86 127.8 139.7C127.733 140.54 127.687 141.233 127.66 141.78C127.633 142.327 127.62 142.827 127.62 143.28C127.647 143.92 127.733 144.347 127.88 144.56C128.04 144.773 128.273 144.88 128.58 144.88C128.727 144.88 128.873 144.867 129.02 144.84C129.167 144.8 129.307 144.753 129.44 144.7L129.6 145.2C129.44 145.493 129.22 145.747 128.94 145.96C128.66 146.16 128.34 146.26 127.98 146.26ZM136.182 150.1C136.329 149.687 136.449 149.307 136.542 148.96C136.636 148.613 136.682 148.253 136.682 147.88C136.682 147.44 136.549 147.087 136.282 146.82C136.029 146.567 135.509 146.347 134.722 146.16C133.776 145.92 133.009 145.607 132.422 145.22C131.836 144.833 131.409 144.333 131.142 143.72C130.876 143.093 130.742 142.313 130.742 141.38C130.742 140.327 130.942 139.42 131.342 138.66C131.742 137.887 132.289 137.293 132.982 136.88C133.689 136.453 134.496 136.24 135.402 136.24C136.149 136.24 136.762 136.367 137.242 136.62C137.736 136.86 138.089 137.167 138.302 137.54C138.316 137.847 138.236 138.1 138.062 138.3C137.889 138.487 137.649 138.58 137.342 138.58C137.129 138.58 136.936 138.54 136.762 138.46C136.602 138.367 136.409 138.213 136.182 138L135.122 137.02C134.642 137.1 134.196 137.3 133.782 137.62C133.369 137.927 133.036 138.373 132.782 138.96C132.542 139.533 132.422 140.267 132.422 141.16C132.422 141.947 132.549 142.567 132.802 143.02C133.069 143.473 133.416 143.82 133.842 144.06C134.269 144.287 134.729 144.467 135.222 144.6C136.289 144.853 137.022 145.187 137.422 145.6C137.836 146.013 138.042 146.54 138.042 147.18C138.042 147.633 137.962 148.073 137.802 148.5C137.656 148.94 137.402 149.473 137.042 150.1H136.182ZM145.712 146.2L145.532 146L145.812 142.42L145.872 138.6C145.872 138.293 145.819 138.06 145.712 137.9C145.619 137.727 145.425 137.64 145.132 137.64C144.999 137.64 144.865 137.647 144.732 137.66C144.599 137.673 144.472 137.693 144.352 137.72L144.132 137.12C144.332 136.867 144.559 136.667 144.812 136.52C145.065 136.373 145.359 136.3 145.692 136.3C146.332 136.3 146.765 136.507 146.992 136.92C147.232 137.32 147.339 137.913 147.312 138.7L147.232 141.88C147.739 140.893 148.325 139.987 148.992 139.16C149.659 138.32 150.279 137.667 150.852 137.2C151.252 136.893 151.605 136.667 151.912 136.52C152.232 136.36 152.565 136.26 152.912 136.22C153.139 136.273 153.325 136.373 153.472 136.52C153.619 136.653 153.692 136.853 153.692 137.12C153.692 137.48 153.552 137.753 153.272 137.94C152.992 138.113 152.599 138.213 152.092 138.24L150.972 138.3C150.639 138.58 150.319 138.873 150.012 139.18C149.719 139.487 149.419 139.807 149.112 140.14C149.659 141.14 150.119 141.94 150.492 142.54C150.865 143.127 151.172 143.573 151.412 143.88C151.665 144.187 151.879 144.393 152.052 144.5C152.239 144.593 152.419 144.64 152.592 144.64C153.032 144.64 153.365 144.593 153.592 144.5L153.752 145.02C153.605 145.407 153.392 145.713 153.112 145.94C152.832 146.153 152.539 146.26 152.232 146.26C152.019 146.26 151.799 146.2 151.572 146.08C151.359 145.96 151.112 145.727 150.832 145.38C150.565 145.02 150.245 144.493 149.872 143.8C149.499 143.093 149.039 142.167 148.492 141.02C148.279 141.38 148.059 141.727 147.832 142.06C147.619 142.393 147.399 142.76 147.172 143.16C147.159 143.64 147.139 144.12 147.112 144.6C147.085 145.067 147.059 145.533 147.032 146L145.712 146.2ZM163.402 146.26C163.135 146.26 162.875 146.187 162.622 146.04C162.369 145.907 162.122 145.627 161.882 145.2C161.655 144.773 161.429 144.14 161.202 143.3L159.862 138.14L156.442 146.2L154.762 146.08L154.622 145.82L159.222 136.24L158.662 134.7C158.409 133.993 158.129 133.527 157.822 133.3C157.515 133.073 157.109 132.96 156.602 132.96C156.269 132.96 155.955 133.007 155.662 133.1C155.382 133.18 155.129 133.293 154.902 133.44L154.482 132.58C154.722 132.18 155.022 131.853 155.382 131.6C155.755 131.347 156.189 131.22 156.682 131.22C157.349 131.22 157.915 131.427 158.382 131.84C158.849 132.253 159.229 132.913 159.522 133.82L162.402 142.88C162.629 143.573 162.855 144.04 163.082 144.28C163.309 144.52 163.575 144.64 163.882 144.64C164.029 144.64 164.169 144.627 164.302 144.6C164.435 144.573 164.582 144.533 164.742 144.48L164.942 144.98C164.782 145.34 164.562 145.647 164.282 145.9C164.002 146.14 163.709 146.26 163.402 146.26ZM169.266 146.26C168.199 146.26 167.313 146.04 166.606 145.6C165.899 145.147 165.546 144.5 165.546 143.66C165.546 142.993 165.779 142.427 166.246 141.96C166.726 141.493 167.353 141.18 168.126 141.02C167.406 140.86 166.853 140.58 166.466 140.18C166.093 139.78 165.906 139.32 165.906 138.8C165.906 138.067 166.219 137.46 166.846 136.98C167.473 136.487 168.473 136.24 169.846 136.24C170.553 136.24 171.179 136.333 171.726 136.52C172.273 136.693 172.666 136.94 172.906 137.26C172.906 137.513 172.826 137.74 172.666 137.94C172.506 138.14 172.273 138.24 171.966 138.24C171.753 138.24 171.533 138.193 171.306 138.1C171.093 137.993 170.819 137.813 170.486 137.56L169.706 136.98C168.986 136.993 168.433 137.147 168.046 137.44C167.659 137.733 167.466 138.133 167.466 138.64C167.466 139.16 167.673 139.567 168.086 139.86C168.499 140.153 169.133 140.3 169.986 140.3C170.186 140.3 170.386 140.3 170.586 140.3C170.786 140.287 171.033 140.273 171.326 140.26V141.58C170.993 141.553 170.753 141.54 170.606 141.54C170.459 141.54 170.313 141.54 170.166 141.54C169.406 141.54 168.813 141.627 168.386 141.8C167.973 141.973 167.679 142.2 167.506 142.48C167.346 142.747 167.266 143.027 167.266 143.32C167.266 143.813 167.466 144.22 167.866 144.54C168.279 144.86 168.879 145.02 169.666 145.02C170.159 145.02 170.666 144.967 171.186 144.86C171.719 144.753 172.293 144.513 172.906 144.14L173.226 144.66C172.733 145.193 172.133 145.593 171.426 145.86C170.733 146.127 170.013 146.26 169.266 146.26ZM169.326 134.88L170.446 131.48C170.553 131.173 170.686 130.96 170.846 130.84C171.006 130.72 171.173 130.66 171.346 130.66C171.586 130.66 171.779 130.733 171.926 130.88C172.086 131.013 172.166 131.193 172.166 131.42C172.166 131.593 172.133 131.747 172.066 131.88C171.999 132.013 171.886 132.207 171.726 132.46L169.946 135.16L169.326 134.88ZM180.71 149.82L180.39 149.6L180.63 146.26C179.11 146.233 177.91 145.887 177.03 145.22C176.163 144.553 175.73 143.493 175.73 142.04C175.73 141.613 175.756 141.107 175.81 140.52C175.863 139.92 175.89 139.34 175.89 138.78C175.89 138.407 175.843 138.127 175.75 137.94C175.67 137.753 175.456 137.66 175.11 137.66C174.99 137.66 174.863 137.667 174.73 137.68C174.61 137.693 174.496 137.713 174.39 137.74L174.15 137.14C174.336 136.887 174.576 136.687 174.87 136.54C175.176 136.38 175.523 136.3 175.91 136.3C176.336 136.3 176.663 136.387 176.89 136.56C177.116 136.72 177.27 136.927 177.35 137.18C177.443 137.433 177.49 137.693 177.49 137.96C177.49 138.387 177.47 138.853 177.43 139.36C177.403 139.853 177.37 140.34 177.33 140.82C177.303 141.287 177.29 141.7 177.29 142.06C177.29 143.033 177.543 143.793 178.05 144.34C178.57 144.887 179.45 145.187 180.69 145.24L180.91 133.4H182.03L182.07 145.22C182.883 145.167 183.57 144.98 184.13 144.66C184.69 144.327 185.123 143.807 185.43 143.1C185.736 142.393 185.91 141.447 185.95 140.26C185.643 139.593 185.41 139.073 185.25 138.7C185.09 138.327 184.983 138.04 184.93 137.84C184.876 137.64 184.85 137.48 184.85 137.36C184.85 136.973 184.956 136.693 185.17 136.52C185.383 136.333 185.616 136.24 185.87 136.24C186.203 136.24 186.463 136.333 186.65 136.52C186.796 137.013 186.903 137.547 186.97 138.12C187.036 138.693 187.07 139.207 187.07 139.66C187.07 141.767 186.656 143.353 185.83 144.42C185.003 145.487 183.756 146.087 182.09 146.22L182.29 149.44L180.71 149.82ZM192.508 146.26C191.442 146.26 190.555 146.04 189.848 145.6C189.142 145.147 188.788 144.5 188.788 143.66C188.788 142.993 189.022 142.427 189.488 141.96C189.968 141.493 190.595 141.18 191.368 141.02C190.648 140.86 190.095 140.58 189.708 140.18C189.335 139.78 189.148 139.32 189.148 138.8C189.148 138.067 189.462 137.46 190.088 136.98C190.715 136.487 191.715 136.24 193.088 136.24C193.795 136.24 194.422 136.333 194.968 136.52C195.515 136.693 195.908 136.94 196.148 137.26C196.148 137.513 196.068 137.74 195.908 137.94C195.748 138.14 195.515 138.24 195.208 138.24C194.995 138.24 194.775 138.193 194.548 138.1C194.335 137.993 194.062 137.813 193.728 137.56L192.948 136.98C192.228 136.993 191.675 137.147 191.288 137.44C190.902 137.733 190.708 138.133 190.708 138.64C190.708 139.16 190.915 139.567 191.328 139.86C191.742 140.153 192.375 140.3 193.228 140.3C193.428 140.3 193.628 140.3 193.828 140.3C194.028 140.287 194.275 140.273 194.568 140.26V141.58C194.235 141.553 193.995 141.54 193.848 141.54C193.702 141.54 193.555 141.54 193.408 141.54C192.648 141.54 192.055 141.627 191.628 141.8C191.215 141.973 190.922 142.2 190.748 142.48C190.588 142.747 190.508 143.027 190.508 143.32C190.508 143.813 190.708 144.22 191.108 144.54C191.522 144.86 192.122 145.02 192.908 145.02C193.402 145.02 193.908 144.967 194.428 144.86C194.962 144.753 195.535 144.513 196.148 144.14L196.468 144.66C195.975 145.193 195.375 145.593 194.668 145.86C193.975 146.127 193.255 146.26 192.508 146.26ZM200.636 146.26C200.023 146.26 199.57 146.04 199.276 145.6C198.996 145.16 198.85 144.46 198.836 143.5L198.776 136.62L200.516 136.26L200.716 136.46C200.623 137.78 200.536 138.86 200.456 139.7C200.39 140.54 200.343 141.233 200.316 141.78C200.29 142.327 200.276 142.827 200.276 143.28C200.303 143.92 200.39 144.347 200.536 144.56C200.696 144.773 200.93 144.88 201.236 144.88C201.383 144.88 201.53 144.867 201.676 144.84C201.823 144.8 201.963 144.753 202.096 144.7L202.256 145.2C202.096 145.493 201.876 145.747 201.596 145.96C201.316 146.16 200.996 146.26 200.636 146.26ZM207.767 138.3L207.607 137.56C208.14 137.133 208.713 136.853 209.327 136.72C209.953 136.573 210.793 136.5 211.847 136.5H216.427L216.507 137.94L212.687 137.86L212.767 143.2C212.78 143.867 212.887 144.313 213.087 144.54C213.3 144.767 213.6 144.88 213.987 144.88C214.12 144.88 214.267 144.867 214.427 144.84C214.587 144.8 214.733 144.753 214.867 144.7L215.027 145.2C214.787 145.56 214.527 145.827 214.247 146C213.98 146.173 213.647 146.26 213.247 146.26C211.9 146.26 211.227 145.44 211.227 143.8C211.227 142.973 211.267 142.04 211.347 141C211.427 139.96 211.513 138.927 211.607 137.9L207.767 138.3ZM224.85 149.6L225.11 145.78L225.31 139.92C225.337 139.133 225.177 138.567 224.83 138.22C224.497 137.86 224.037 137.68 223.45 137.68C222.93 137.68 222.41 137.88 221.89 138.28C221.384 138.667 220.984 139.127 220.69 139.66L220.79 146L219.15 146.2L218.95 146L219.21 142.38L219.27 138.6C219.27 138.293 219.217 138.06 219.11 137.9C219.017 137.727 218.824 137.64 218.53 137.64C218.397 137.64 218.264 137.647 218.13 137.66C218.01 137.673 217.884 137.693 217.75 137.72L217.53 137.12C217.73 136.867 217.944 136.667 218.17 136.52C218.397 136.36 218.677 136.28 219.01 136.28C219.544 136.28 219.937 136.467 220.19 136.84C220.457 137.213 220.617 137.8 220.67 138.6C220.91 138.107 221.217 137.687 221.59 137.34C221.964 136.993 222.357 136.727 222.77 136.54C223.184 136.34 223.57 136.24 223.93 136.24C224.717 136.24 225.344 136.5 225.81 137.02C226.277 137.527 226.517 138.433 226.53 139.74L226.69 149.44L225.05 149.8L224.85 149.6ZM232.466 146.06C232.173 144.873 231.84 143.747 231.466 142.68C231.093 141.613 230.713 140.52 230.326 139.4C230.113 138.787 229.9 138.353 229.686 138.1C229.486 137.833 229.233 137.7 228.926 137.7C228.793 137.7 228.673 137.707 228.566 137.72C228.473 137.733 228.38 137.753 228.286 137.78L228.066 137.18C228.586 136.62 229.153 136.34 229.766 136.34C230.22 136.34 230.62 136.56 230.966 137C231.326 137.427 231.66 138.153 231.966 139.18C232.286 140.233 232.566 141.213 232.806 142.12C233.06 143.013 233.253 143.847 233.386 144.62C233.853 143.753 234.246 142.96 234.566 142.24C234.9 141.507 235.22 140.733 235.526 139.92C235.446 139.307 235.393 138.827 235.366 138.48C235.34 138.133 235.326 137.84 235.326 137.6C235.326 137.147 235.42 136.807 235.606 136.58C235.793 136.353 236.046 136.24 236.366 136.24C236.566 136.24 236.713 136.267 236.806 136.32C236.913 136.36 237.006 136.413 237.086 136.48C237.113 136.587 237.133 136.707 237.146 136.84C237.173 136.96 237.186 137.133 237.186 137.36C237.186 137.893 237.073 138.513 236.846 139.22C236.633 139.927 236.346 140.673 235.986 141.46C235.626 142.233 235.226 143.013 234.786 143.8C234.346 144.573 233.906 145.307 233.466 146L232.466 146.06ZM244.599 146.2L244.419 146L244.699 142.42L244.759 138.6C244.759 138.293 244.705 138.06 244.599 137.9C244.505 137.727 244.312 137.64 244.019 137.64C243.885 137.64 243.752 137.647 243.619 137.66C243.485 137.673 243.359 137.693 243.239 137.72L243.019 137.12C243.219 136.867 243.445 136.667 243.699 136.52C243.952 136.373 244.245 136.3 244.579 136.3C245.219 136.3 245.652 136.507 245.879 136.92C246.119 137.32 246.225 137.913 246.199 138.7L246.119 141.88C246.625 140.893 247.212 139.987 247.879 139.16C248.545 138.32 249.165 137.667 249.739 137.2C250.139 136.893 250.492 136.667 250.799 136.52C251.119 136.36 251.452 136.26 251.799 136.22C252.025 136.273 252.212 136.373 252.359 136.52C252.505 136.653 252.579 136.853 252.579 137.12C252.579 137.48 252.439 137.753 252.159 137.94C251.879 138.113 251.485 138.213 250.979 138.24L249.859 138.3C249.525 138.58 249.205 138.873 248.899 139.18C248.605 139.487 248.305 139.807 247.999 140.14C248.545 141.14 249.005 141.94 249.379 142.54C249.752 143.127 250.059 143.573 250.299 143.88C250.552 144.187 250.765 144.393 250.939 144.5C251.125 144.593 251.305 144.64 251.479 144.64C251.919 144.64 252.252 144.593 252.479 144.5L252.639 145.02C252.492 145.407 252.279 145.713 251.999 145.94C251.719 146.153 251.425 146.26 251.119 146.26C250.905 146.26 250.685 146.2 250.459 146.08C250.245 145.96 249.999 145.727 249.719 145.38C249.452 145.02 249.132 144.493 248.759 143.8C248.385 143.093 247.925 142.167 247.379 141.02C247.165 141.38 246.945 141.727 246.719 142.06C246.505 142.393 246.285 142.76 246.059 143.16C246.045 143.64 246.025 144.12 245.999 144.6C245.972 145.067 245.945 145.533 245.919 146L244.599 146.2ZM255.313 141.02C255.313 142.433 255.547 143.5 256.013 144.22C256.48 144.927 257.1 145.28 257.873 145.28C258.473 145.28 259 144.993 259.453 144.42C259.92 143.847 260.18 143.053 260.233 142.04L260.333 139.52C260.08 138.68 259.713 138.08 259.233 137.72C258.753 137.36 258.253 137.18 257.733 137.18C257.04 137.18 256.46 137.513 255.993 138.18C255.54 138.833 255.313 139.78 255.313 141.02ZM257.493 146.26C256.76 146.26 256.093 146.08 255.493 145.72C254.907 145.347 254.433 144.793 254.073 144.06C253.727 143.327 253.553 142.427 253.553 141.36C253.553 140.293 253.753 139.38 254.153 138.62C254.567 137.847 255.087 137.26 255.713 136.86C256.353 136.447 257.02 136.24 257.713 136.24C258.287 136.24 258.8 136.367 259.253 136.62C259.72 136.873 260.107 137.307 260.413 137.92L260.513 136.64L262.073 136.28L262.373 136.48C262.24 137.32 262.113 138.18 261.993 139.06C261.887 139.927 261.8 140.747 261.733 141.52C261.68 142.293 261.653 142.94 261.653 143.46C261.653 143.993 261.72 144.367 261.853 144.58C262 144.78 262.227 144.88 262.533 144.88C262.667 144.88 262.807 144.867 262.953 144.84C263.1 144.8 263.24 144.753 263.373 144.7L263.553 145.2C263.393 145.507 263.167 145.76 262.873 145.96C262.58 146.16 262.26 146.26 261.913 146.26C261.553 146.26 261.24 146.127 260.973 145.86C260.72 145.58 260.54 145.047 260.433 144.26C260.14 144.953 259.733 145.46 259.213 145.78C258.707 146.1 258.133 146.26 257.493 146.26ZM266.828 140.82L266.768 144.18C267.195 144.5 267.608 144.747 268.008 144.92C268.421 145.08 268.868 145.16 269.348 145.16C270.348 145.16 271.061 144.807 271.488 144.1C271.928 143.38 272.148 142.413 272.148 141.2C272.148 139.827 271.895 138.813 271.388 138.16C270.881 137.493 270.255 137.16 269.508 137.16C268.721 137.16 268.081 137.467 267.588 138.08C267.108 138.693 266.855 139.607 266.828 140.82ZM265.208 149.6L265.268 145.76L265.288 141.26C265.301 140.113 265.488 139.173 265.848 138.44C266.221 137.693 266.728 137.14 267.368 136.78C268.021 136.42 268.761 136.24 269.588 136.24C270.415 136.24 271.155 136.44 271.808 136.84C272.461 137.227 272.975 137.787 273.348 138.52C273.721 139.24 273.908 140.107 273.908 141.12C273.908 142.227 273.695 143.167 273.268 143.94C272.855 144.7 272.308 145.28 271.628 145.68C270.948 146.067 270.215 146.26 269.428 146.26C269.015 146.26 268.568 146.173 268.088 146C267.621 145.827 267.195 145.533 266.808 145.12L267.128 149.44L265.448 149.8L265.208 149.6ZM279.587 146.26C278.8 146.26 278.074 146.087 277.407 145.74C276.754 145.38 276.234 144.88 275.847 144.24C275.46 143.6 275.267 142.847 275.267 141.98C275.267 140.767 275.607 139.747 276.287 138.92C276.98 138.093 277.86 137.507 278.927 137.16C278.074 136.6 277.467 136.093 277.107 135.64C276.747 135.173 276.567 134.673 276.567 134.14C276.567 133.233 276.907 132.52 277.587 132C278.267 131.48 279.154 131.22 280.247 131.22C281.087 131.22 281.847 131.387 282.527 131.72C283.207 132.053 283.7 132.5 284.007 133.06C283.954 133.34 283.84 133.567 283.667 133.74C283.494 133.913 283.294 134 283.067 134C282.654 134 282.114 133.687 281.447 133.06L280.207 131.92C279.554 131.933 279.007 132.1 278.567 132.42C278.14 132.74 277.927 133.153 277.927 133.66C277.927 133.967 278.014 134.247 278.187 134.5C278.36 134.74 278.66 135.02 279.087 135.34C279.514 135.66 280.114 136.093 280.887 136.64C281.767 137.253 282.447 137.82 282.927 138.34C283.42 138.847 283.76 139.373 283.947 139.92C284.147 140.453 284.247 141.08 284.247 141.8C284.247 142.533 284.074 143.247 283.727 143.94C283.38 144.62 282.86 145.18 282.167 145.62C281.474 146.047 280.614 146.26 279.587 146.26ZM277.107 141.92C277.107 143.12 277.36 143.993 277.867 144.54C278.387 145.087 279.007 145.36 279.727 145.36C280.634 145.36 281.32 145.033 281.787 144.38C282.254 143.727 282.487 142.893 282.487 141.88C282.487 140.893 282.254 140.08 281.787 139.44C281.32 138.8 280.647 138.213 279.767 137.68C278.86 138.04 278.187 138.58 277.747 139.3C277.32 140.007 277.107 140.88 277.107 141.92ZM289.093 146.26C288.48 146.26 288.027 146.04 287.733 145.6C287.453 145.16 287.307 144.46 287.293 143.5L287.233 136.62L288.973 136.26L289.173 136.46C289.08 137.78 288.993 138.86 288.913 139.7C288.847 140.54 288.8 141.233 288.773 141.78C288.747 142.327 288.733 142.827 288.733 143.28C288.76 143.92 288.847 144.347 288.993 144.56C289.153 144.773 289.387 144.88 289.693 144.88C289.84 144.88 289.987 144.867 290.133 144.84C290.28 144.8 290.42 144.753 290.553 144.7L290.713 145.2C290.553 145.493 290.333 145.747 290.053 145.96C289.773 146.16 289.453 146.26 289.093 146.26ZM293.556 141.02C293.556 142.433 293.789 143.5 294.256 144.22C294.722 144.927 295.342 145.28 296.116 145.28C296.716 145.28 297.242 144.993 297.696 144.42C298.162 143.847 298.422 143.053 298.476 142.04L298.576 139.52C298.322 138.68 297.956 138.08 297.476 137.72C296.996 137.36 296.496 137.18 295.976 137.18C295.282 137.18 294.702 137.513 294.236 138.18C293.782 138.833 293.556 139.78 293.556 141.02ZM295.736 146.26C295.002 146.26 294.336 146.08 293.736 145.72C293.149 145.347 292.676 144.793 292.316 144.06C291.969 143.327 291.796 142.427 291.796 141.36C291.796 140.293 291.996 139.38 292.396 138.62C292.809 137.847 293.329 137.26 293.956 136.86C294.596 136.447 295.262 136.24 295.956 136.24C296.529 136.24 297.042 136.367 297.496 136.62C297.962 136.873 298.349 137.307 298.656 137.92L298.756 136.64L300.316 136.28L300.616 136.48C300.482 137.32 300.356 138.18 300.236 139.06C300.129 139.927 300.042 140.747 299.976 141.52C299.922 142.293 299.896 142.94 299.896 143.46C299.896 143.993 299.962 144.367 300.096 144.58C300.242 144.78 300.469 144.88 300.776 144.88C300.909 144.88 301.049 144.867 301.196 144.84C301.342 144.8 301.482 144.753 301.616 144.7L301.796 145.2C301.636 145.507 301.409 145.76 301.116 145.96C300.822 146.16 300.502 146.26 300.156 146.26C299.796 146.26 299.482 146.127 299.216 145.86C298.962 145.58 298.782 145.047 298.676 144.26C298.382 144.953 297.976 145.46 297.456 145.78C296.949 146.1 296.376 146.26 295.736 146.26ZM296.016 134.88L297.136 131.48C297.242 131.173 297.376 130.96 297.536 130.84C297.696 130.72 297.862 130.66 298.036 130.66C298.276 130.66 298.469 130.733 298.616 130.88C298.776 131.013 298.856 131.193 298.856 131.42C298.856 131.593 298.822 131.747 298.756 131.88C298.689 132.013 298.576 132.207 298.416 132.46L296.636 135.16L296.016 134.88ZM304.97 146.26C304.61 146.26 304.304 146.133 304.05 145.88C303.797 145.613 303.67 145.307 303.67 144.96C303.67 144.613 303.797 144.313 304.05 144.06C304.304 143.793 304.61 143.66 304.97 143.66C305.33 143.66 305.63 143.793 305.87 144.06C306.124 144.313 306.25 144.613 306.25 144.96C306.25 145.307 306.124 145.613 305.87 145.88C305.63 146.133 305.33 146.26 304.97 146.26ZM304.97 132.32C305.317 132.32 305.59 132.42 305.79 132.62C306.004 132.82 306.11 133.14 306.11 133.58C306.11 133.953 306.064 134.6 305.97 135.52C305.877 136.427 305.757 137.573 305.61 138.96L305.33 141.7H304.59L304.33 138.96C304.184 137.573 304.057 136.427 303.95 135.52C303.857 134.6 303.81 133.953 303.81 133.58C303.81 133.14 303.91 132.82 304.11 132.62C304.324 132.42 304.61 132.32 304.97 132.32Z" fill="black"/>
<path d="M252.721 235.6L253.141 229.96L252.841 222.62L254.541 222.24L254.761 222.44C254.707 223.547 254.654 224.5 254.601 225.3C254.547 226.1 254.501 226.8 254.461 227.4C254.421 228 254.394 228.553 254.381 229.06C254.687 229.727 255.034 230.173 255.421 230.4C255.807 230.613 256.187 230.72 256.561 230.72C257.067 230.72 257.514 230.58 257.901 230.3C258.301 230.02 258.667 229.453 259.001 228.6L258.881 222.62L260.601 222.24L260.801 222.44C260.694 223.773 260.601 224.86 260.521 225.7C260.454 226.54 260.401 227.233 260.361 227.78C260.334 228.313 260.327 228.813 260.341 229.28C260.367 229.907 260.441 230.333 260.561 230.56C260.681 230.773 260.907 230.88 261.241 230.88C261.374 230.88 261.514 230.867 261.661 230.84C261.807 230.8 261.941 230.753 262.061 230.7L262.241 231.2C262.081 231.493 261.861 231.747 261.581 231.96C261.301 232.16 260.961 232.26 260.561 232.26C260.027 232.26 259.654 232.06 259.441 231.66C259.227 231.26 259.094 230.693 259.041 229.96C258.707 230.773 258.314 231.36 257.861 231.72C257.407 232.08 256.907 232.26 256.361 232.26C255.974 232.26 255.567 232.133 255.141 231.88C254.727 231.613 254.387 231.227 254.121 230.72L254.621 235.44L252.961 235.8L252.721 235.6ZM267.047 232.26C265.981 232.26 265.094 232.04 264.387 231.6C263.681 231.147 263.327 230.5 263.327 229.66C263.327 228.993 263.561 228.427 264.027 227.96C264.507 227.493 265.134 227.18 265.907 227.02C265.187 226.86 264.634 226.58 264.247 226.18C263.874 225.78 263.687 225.32 263.687 224.8C263.687 224.067 264.001 223.46 264.627 222.98C265.254 222.487 266.254 222.24 267.627 222.24C268.334 222.24 268.961 222.333 269.507 222.52C270.054 222.693 270.447 222.94 270.687 223.26C270.687 223.513 270.607 223.74 270.447 223.94C270.287 224.14 270.054 224.24 269.747 224.24C269.534 224.24 269.314 224.193 269.087 224.1C268.874 223.993 268.601 223.813 268.267 223.56L267.487 222.98C266.767 222.993 266.214 223.147 265.827 223.44C265.441 223.733 265.247 224.133 265.247 224.64C265.247 225.16 265.454 225.567 265.867 225.86C266.281 226.153 266.914 226.3 267.767 226.3C267.967 226.3 268.167 226.3 268.367 226.3C268.567 226.287 268.814 226.273 269.107 226.26V227.58C268.774 227.553 268.534 227.54 268.387 227.54C268.241 227.54 268.094 227.54 267.947 227.54C267.187 227.54 266.594 227.627 266.167 227.8C265.754 227.973 265.461 228.2 265.287 228.48C265.127 228.747 265.047 229.027 265.047 229.32C265.047 229.813 265.247 230.22 265.647 230.54C266.061 230.86 266.661 231.02 267.447 231.02C267.941 231.02 268.447 230.967 268.967 230.86C269.501 230.753 270.074 230.513 270.687 230.14L271.007 230.66C270.514 231.193 269.914 231.593 269.207 231.86C268.514 232.127 267.794 232.26 267.047 232.26ZM278.759 227.02C278.759 228.433 278.992 229.5 279.459 230.22C279.925 230.927 280.545 231.28 281.319 231.28C281.919 231.28 282.445 230.993 282.899 230.42C283.365 229.847 283.625 229.053 283.679 228.04L283.779 225.52C283.525 224.68 283.159 224.08 282.679 223.72C282.199 223.36 281.699 223.18 281.179 223.18C280.485 223.18 279.905 223.513 279.439 224.18C278.985 224.833 278.759 225.78 278.759 227.02ZM280.939 232.26C280.205 232.26 279.539 232.08 278.939 231.72C278.352 231.347 277.879 230.793 277.519 230.06C277.172 229.327 276.999 228.427 276.999 227.36C276.999 226.293 277.199 225.38 277.599 224.62C278.012 223.847 278.532 223.26 279.159 222.86C279.799 222.447 280.465 222.24 281.159 222.24C281.732 222.24 282.245 222.367 282.699 222.62C283.165 222.873 283.552 223.307 283.859 223.92L283.959 222.64L285.519 222.28L285.819 222.48C285.685 223.32 285.559 224.18 285.439 225.06C285.332 225.927 285.245 226.747 285.179 227.52C285.125 228.293 285.099 228.94 285.099 229.46C285.099 229.993 285.165 230.367 285.299 230.58C285.445 230.78 285.672 230.88 285.979 230.88C286.112 230.88 286.252 230.867 286.399 230.84C286.545 230.8 286.685 230.753 286.819 230.7L286.999 231.2C286.839 231.507 286.612 231.76 286.319 231.96C286.025 232.16 285.705 232.26 285.359 232.26C284.999 232.26 284.685 232.127 284.419 231.86C284.165 231.58 283.985 231.047 283.879 230.26C283.585 230.953 283.179 231.46 282.659 231.78C282.152 232.1 281.579 232.26 280.939 232.26ZM291.193 235.6L291.573 231.84C291.32 230.8 291.027 229.793 290.693 228.82C290.36 227.833 290.033 226.86 289.713 225.9C289.433 225.073 289.187 224.5 288.973 224.18C288.773 223.86 288.5 223.7 288.153 223.7C287.94 223.7 287.727 223.727 287.513 223.78L287.273 223.18C287.5 222.94 287.74 222.74 287.993 222.58C288.247 222.42 288.553 222.34 288.913 222.34C289.18 222.34 289.433 222.4 289.673 222.52C289.913 222.627 290.153 222.873 290.393 223.26C290.633 223.647 290.88 224.24 291.133 225.04C291.333 225.653 291.553 226.413 291.793 227.32C292.047 228.213 292.32 229.313 292.613 230.62C293.08 229.753 293.473 228.953 293.793 228.22C294.127 227.487 294.447 226.7 294.753 225.86C294.66 225.167 294.6 224.667 294.573 224.36C294.547 224.053 294.533 223.8 294.533 223.6C294.533 223.147 294.627 222.807 294.813 222.58C295 222.353 295.253 222.24 295.573 222.24C295.773 222.24 295.92 222.267 296.013 222.32C296.12 222.36 296.213 222.413 296.293 222.48C296.32 222.587 296.34 222.707 296.353 222.84C296.38 222.96 296.393 223.133 296.393 223.36C296.393 223.893 296.287 224.5 296.073 225.18C295.873 225.86 295.6 226.58 295.253 227.34C294.907 228.087 294.527 228.84 294.113 229.6C293.7 230.36 293.287 231.087 292.873 231.78L292.953 235.44L291.373 235.8L291.193 235.6ZM299.638 227.02C299.638 228.433 299.871 229.5 300.338 230.22C300.804 230.927 301.424 231.28 302.198 231.28C302.798 231.28 303.324 230.993 303.778 230.42C304.244 229.847 304.504 229.053 304.558 228.04L304.658 225.52C304.404 224.68 304.038 224.08 303.558 223.72C303.078 223.36 302.578 223.18 302.058 223.18C301.364 223.18 300.784 223.513 300.318 224.18C299.864 224.833 299.638 225.78 299.638 227.02ZM301.818 232.26C301.084 232.26 300.418 232.08 299.818 231.72C299.231 231.347 298.758 230.793 298.398 230.06C298.051 229.327 297.878 228.427 297.878 227.36C297.878 226.293 298.078 225.38 298.478 224.62C298.891 223.847 299.411 223.26 300.038 222.86C300.678 222.447 301.344 222.24 302.038 222.24C302.611 222.24 303.124 222.367 303.578 222.62C304.044 222.873 304.431 223.307 304.738 223.92L304.838 222.64L306.398 222.28L306.698 222.48C306.564 223.32 306.438 224.18 306.318 225.06C306.211 225.927 306.124 226.747 306.058 227.52C306.004 228.293 305.978 228.94 305.978 229.46C305.978 229.993 306.044 230.367 306.178 230.58C306.324 230.78 306.551 230.88 306.858 230.88C306.991 230.88 307.131 230.867 307.278 230.84C307.424 230.8 307.564 230.753 307.698 230.7L307.878 231.2C307.718 231.507 307.491 231.76 307.198 231.96C306.904 232.16 306.584 232.26 306.238 232.26C305.878 232.26 305.564 232.127 305.298 231.86C305.044 231.58 304.864 231.047 304.758 230.26C304.464 230.953 304.058 231.46 303.538 231.78C303.031 232.1 302.458 232.26 301.818 232.26ZM302.098 220.88L303.218 217.48C303.324 217.173 303.458 216.96 303.618 216.84C303.778 216.72 303.944 216.66 304.118 216.66C304.358 216.66 304.551 216.733 304.698 216.88C304.858 217.013 304.938 217.193 304.938 217.42C304.938 217.593 304.904 217.747 304.838 217.88C304.771 218.013 304.658 218.207 304.498 218.46L302.718 221.16L302.098 220.88ZM308.692 224.3L308.532 223.56C308.866 223.293 309.192 223.087 309.512 222.94C309.846 222.78 310.232 222.667 310.672 222.6C311.112 222.533 311.679 222.5 312.372 222.5H319.372L319.452 223.94L316.872 223.86L317.032 229.2C317.059 229.867 317.172 230.313 317.372 230.54C317.572 230.767 317.866 230.88 318.252 230.88C318.386 230.88 318.532 230.867 318.692 230.84C318.852 230.8 318.999 230.753 319.132 230.7L319.292 231.2C319.052 231.56 318.792 231.827 318.512 232C318.246 232.173 317.912 232.26 317.512 232.26C316.819 232.26 316.306 232.06 315.972 231.66C315.652 231.247 315.492 230.627 315.492 229.8C315.492 228.973 315.512 228.033 315.552 226.98C315.606 225.913 315.659 224.867 315.712 223.84H312.492C312.479 224.853 312.459 225.867 312.432 226.88C312.419 227.893 312.379 228.887 312.312 229.86C312.246 230.713 312.039 231.327 311.692 231.7C311.346 232.073 310.879 232.26 310.292 232.26C309.932 232.26 309.639 232.173 309.412 232C309.186 231.813 309.072 231.567 309.072 231.26C309.072 231.02 309.106 230.833 309.172 230.7C309.252 230.553 309.359 230.427 309.492 230.32C309.999 230.227 310.586 230.147 311.252 230.08C311.359 229.053 311.432 228.027 311.472 227C311.526 225.96 311.566 224.92 311.592 223.88L308.692 224.3ZM327.788 235.6L328.048 231.78L328.248 225.92C328.274 225.133 328.114 224.567 327.768 224.22C327.434 223.86 326.974 223.68 326.388 223.68C325.868 223.68 325.348 223.88 324.828 224.28C324.321 224.667 323.921 225.127 323.628 225.66L323.728 232L322.088 232.2L321.888 232L322.148 228.38L322.208 224.6C322.208 224.293 322.154 224.06 322.048 223.9C321.954 223.727 321.761 223.64 321.468 223.64C321.334 223.64 321.201 223.647 321.068 223.66C320.948 223.673 320.821 223.693 320.688 223.72L320.468 223.12C320.668 222.867 320.881 222.667 321.108 222.52C321.334 222.36 321.614 222.28 321.948 222.28C322.481 222.28 322.874 222.467 323.128 222.84C323.394 223.213 323.554 223.8 323.608 224.6C323.848 224.107 324.154 223.687 324.528 223.34C324.901 222.993 325.294 222.727 325.708 222.54C326.121 222.34 326.508 222.24 326.868 222.24C327.654 222.24 328.281 222.5 328.748 223.02C329.214 223.527 329.454 224.433 329.468 225.74L329.628 235.44L327.988 235.8L327.788 235.6ZM335.264 231.42C335.264 232.22 335.071 232.96 334.684 233.64C334.311 234.32 333.831 234.9 333.244 235.38C332.657 235.873 332.044 236.24 331.404 236.48L331.124 235.8C331.804 235.453 332.404 235.033 332.924 234.54C333.444 234.047 333.824 233.427 334.064 232.68L333.324 232.1C333.057 231.887 332.864 231.66 332.744 231.42C332.624 231.167 332.564 230.913 332.564 230.66C332.564 230.313 332.664 230.02 332.864 229.78C333.077 229.527 333.391 229.4 333.804 229.4C333.991 229.4 334.177 229.44 334.364 229.52C334.564 229.6 334.791 229.753 335.044 229.98C335.124 230.233 335.177 230.48 335.204 230.72C335.244 230.947 335.264 231.18 335.264 231.42ZM288.463 260.6L288.883 254.96L288.583 247.62L290.283 247.24L290.503 247.44C290.449 248.547 290.396 249.5 290.343 250.3C290.289 251.1 290.243 251.8 290.203 252.4C290.163 253 290.136 253.553 290.123 254.06C290.429 254.727 290.776 255.173 291.163 255.4C291.549 255.613 291.929 255.72 292.303 255.72C292.809 255.72 293.256 255.58 293.643 255.3C294.043 255.02 294.409 254.453 294.743 253.6L294.623 247.62L296.343 247.24L296.543 247.44C296.436 248.773 296.343 249.86 296.263 250.7C296.196 251.54 296.143 252.233 296.103 252.78C296.076 253.313 296.069 253.813 296.083 254.28C296.109 254.907 296.183 255.333 296.303 255.56C296.423 255.773 296.649 255.88 296.983 255.88C297.116 255.88 297.256 255.867 297.403 255.84C297.549 255.8 297.683 255.753 297.803 255.7L297.983 256.2C297.823 256.493 297.603 256.747 297.323 256.96C297.043 257.16 296.703 257.26 296.303 257.26C295.769 257.26 295.396 257.06 295.183 256.66C294.969 256.26 294.836 255.693 294.783 254.96C294.449 255.773 294.056 256.36 293.603 256.72C293.149 257.08 292.649 257.26 292.103 257.26C291.716 257.26 291.309 257.133 290.883 256.88C290.469 256.613 290.129 256.227 289.863 255.72L290.363 260.44L288.703 260.8L288.463 260.6ZM300.81 252.02C300.81 253.433 301.043 254.5 301.51 255.22C301.976 255.927 302.596 256.28 303.37 256.28C303.97 256.28 304.496 255.993 304.95 255.42C305.416 254.847 305.676 254.053 305.73 253.04L305.83 250.52C305.576 249.68 305.21 249.08 304.73 248.72C304.25 248.36 303.75 248.18 303.23 248.18C302.536 248.18 301.956 248.513 301.49 249.18C301.036 249.833 300.81 250.78 300.81 252.02ZM302.99 257.26C302.256 257.26 301.59 257.08 300.99 256.72C300.403 256.347 299.93 255.793 299.57 255.06C299.223 254.327 299.05 253.427 299.05 252.36C299.05 251.293 299.25 250.38 299.65 249.62C300.063 248.847 300.583 248.26 301.21 247.86C301.85 247.447 302.516 247.24 303.21 247.24C303.783 247.24 304.296 247.367 304.75 247.62C305.216 247.873 305.603 248.307 305.91 248.92L306.01 247.64L307.57 247.28L307.87 247.48C307.736 248.32 307.61 249.18 307.49 250.06C307.383 250.927 307.296 251.747 307.23 252.52C307.176 253.293 307.15 253.94 307.15 254.46C307.15 254.993 307.216 255.367 307.35 255.58C307.496 255.78 307.723 255.88 308.03 255.88C308.163 255.88 308.303 255.867 308.45 255.84C308.596 255.8 308.736 255.753 308.87 255.7L309.05 256.2C308.89 256.507 308.663 256.76 308.37 256.96C308.076 257.16 307.756 257.26 307.41 257.26C307.05 257.26 306.736 257.127 306.47 256.86C306.216 256.58 306.036 256.047 305.93 255.26C305.636 255.953 305.23 256.46 304.71 256.78C304.203 257.1 303.63 257.26 302.99 257.26ZM312.324 251.82L312.264 255.18C312.691 255.5 313.104 255.747 313.504 255.92C313.918 256.08 314.364 256.16 314.844 256.16C315.844 256.16 316.558 255.807 316.984 255.1C317.424 254.38 317.644 253.413 317.644 252.2C317.644 250.827 317.391 249.813 316.884 249.16C316.378 248.493 315.751 248.16 315.004 248.16C314.218 248.16 313.578 248.467 313.084 249.08C312.604 249.693 312.351 250.607 312.324 251.82ZM310.704 260.6L310.764 256.76L310.784 252.26C310.798 251.113 310.984 250.173 311.344 249.44C311.718 248.693 312.224 248.14 312.864 247.78C313.518 247.42 314.258 247.24 315.084 247.24C315.911 247.24 316.651 247.44 317.304 247.84C317.958 248.227 318.471 248.787 318.844 249.52C319.218 250.24 319.404 251.107 319.404 252.12C319.404 253.227 319.191 254.167 318.764 254.94C318.351 255.7 317.804 256.28 317.124 256.68C316.444 257.067 315.711 257.26 314.924 257.26C314.511 257.26 314.064 257.173 313.584 257C313.118 256.827 312.691 256.533 312.304 256.12L312.624 260.44L310.944 260.8L310.704 260.6ZM324.023 257.26C323.41 257.26 322.956 257.04 322.663 256.6C322.383 256.16 322.236 255.46 322.223 254.5L322.163 247.62L323.903 247.26L324.103 247.46C324.01 248.78 323.923 249.86 323.843 250.7C323.776 251.54 323.73 252.233 323.703 252.78C323.676 253.327 323.663 253.827 323.663 254.28C323.69 254.92 323.776 255.347 323.923 255.56C324.083 255.773 324.316 255.88 324.623 255.88C324.77 255.88 324.916 255.867 325.063 255.84C325.21 255.8 325.35 255.753 325.483 255.7L325.643 256.2C325.483 256.493 325.263 256.747 324.983 256.96C324.703 257.16 324.383 257.26 324.023 257.26ZM322.863 245.88L323.983 242.48C324.09 242.173 324.223 241.96 324.383 241.84C324.543 241.72 324.71 241.66 324.883 241.66C325.123 241.66 325.316 241.733 325.463 241.88C325.623 242.013 325.703 242.193 325.703 242.42C325.703 242.593 325.67 242.747 325.603 242.88C325.536 243.013 325.423 243.207 325.263 243.46L323.483 246.16L322.863 245.88ZM328.485 252.02C328.485 253.433 328.719 254.5 329.185 255.22C329.652 255.927 330.272 256.28 331.045 256.28C331.645 256.28 332.172 255.993 332.625 255.42C333.092 254.847 333.352 254.053 333.405 253.04L333.505 250.52C333.252 249.68 332.885 249.08 332.405 248.72C331.925 248.36 331.425 248.18 330.905 248.18C330.212 248.18 329.632 248.513 329.165 249.18C328.712 249.833 328.485 250.78 328.485 252.02ZM330.665 257.26C329.932 257.26 329.265 257.08 328.665 256.72C328.079 256.347 327.605 255.793 327.245 255.06C326.899 254.327 326.725 253.427 326.725 252.36C326.725 251.293 326.925 250.38 327.325 249.62C327.739 248.847 328.259 248.26 328.885 247.86C329.525 247.447 330.192 247.24 330.885 247.24C331.459 247.24 331.972 247.367 332.425 247.62C332.892 247.873 333.279 248.307 333.585 248.92L333.685 247.64L335.245 247.28L335.545 247.48C335.412 248.32 335.285 249.18 335.165 250.06C335.059 250.927 334.972 251.747 334.905 252.52C334.852 253.293 334.825 253.94 334.825 254.46C334.825 254.993 334.892 255.367 335.025 255.58C335.172 255.78 335.399 255.88 335.705 255.88C335.839 255.88 335.979 255.867 336.125 255.84C336.272 255.8 336.412 255.753 336.545 255.7L336.725 256.2C336.565 256.507 336.339 256.76 336.045 256.96C335.752 257.16 335.432 257.26 335.085 257.26C334.725 257.26 334.412 257.127 334.145 256.86C333.892 256.58 333.712 256.047 333.605 255.26C333.312 255.953 332.905 256.46 332.385 256.78C331.879 257.1 331.305 257.26 330.665 257.26Z" fill="black"/>
</svg>
