<svg width="92" height="25" viewBox="0 0 92 25" fill="none" xmlns="http://www.w3.org/2000/svg">
<path d="M9.03 24.42C7.84 24.42 6.73167 24.21 5.705 23.79C4.70167 23.37 3.815 22.7867 3.045 22.04C2.29833 21.2933 1.715 20.4067 1.295 19.38C0.874999 18.3533 0.664999 17.2217 0.664999 15.985C0.664999 14.795 0.874999 13.675 1.295 12.625C1.715 11.575 2.29833 10.665 3.045 9.895C3.815 9.10167 4.70167 8.48333 5.705 8.04C6.73167 7.57333 7.85167 7.34 9.065 7.34C10.5583 7.34 11.865 7.62 12.985 8.18C14.105 8.74 14.9917 9.51 15.645 10.49L13.44 12.905L13.23 13.15L12.95 12.94C12.95 12.7533 12.9267 12.5667 12.88 12.38C12.8333 12.17 12.6817 11.925 12.425 11.645C11.9817 11.2017 11.4917 10.91 10.955 10.77C10.4183 10.6067 9.8 10.525 9.1 10.525C8.51667 10.525 7.95667 10.6533 7.42 10.91C6.90667 11.1433 6.44 11.4933 6.02 11.96C5.6 12.4033 5.27333 12.9633 5.04 13.64C4.80667 14.3167 4.69 15.0983 4.69 15.985C4.69 16.7783 4.80667 17.5017 5.04 18.155C5.29667 18.785 5.62333 19.3333 6.02 19.8C6.44 20.2433 6.91833 20.5933 7.455 20.85C8.015 21.0833 8.59833 21.2 9.205 21.2C9.695 21.2 10.1733 21.13 10.64 20.99C11.1067 20.85 11.5617 20.64 12.005 20.36C12.4717 20.0567 12.9033 19.66 13.3 19.17L15.505 21.69C14.6417 22.6467 13.6383 23.3467 12.495 23.79C11.3517 24.21 10.1967 24.42 9.03 24.42ZM20.23 24V20.885H24.815V3.63H20.44V0.515H28.805V20.885H33.355V24H20.23ZM39.69 24V20.885H43.68V10.84H39.9V7.725H47.67V20.885H51.31V24H39.69ZM45.5 5.03C44.8233 5.03 44.24 4.79666 43.75 4.33C43.26 3.86333 43.015 3.30333 43.015 2.65C43.015 1.95 43.2483 1.37833 43.715 0.934999C44.1817 0.491665 44.7767 0.269999 45.5 0.269999C46.1533 0.269999 46.725 0.503332 47.215 0.969998C47.7283 1.43667 47.985 1.99667 47.985 2.65C47.985 3.30333 47.7283 3.86333 47.215 4.33C46.725 4.79666 46.1533 5.03 45.5 5.03ZM65.205 24.42C64.015 24.42 62.9067 24.21 61.88 23.79C60.8767 23.37 59.99 22.7867 59.22 22.04C58.4733 21.2933 57.89 20.4067 57.47 19.38C57.05 18.3533 56.84 17.2217 56.84 15.985C56.84 14.795 57.05 13.675 57.47 12.625C57.89 11.575 58.4733 10.665 59.22 9.895C59.99 9.10167 60.8767 8.48333 61.88 8.04C62.9067 7.57333 64.0267 7.34 65.24 7.34C66.7333 7.34 68.04 7.62 69.16 8.18C70.28 8.74 71.1667 9.51 71.82 10.49L69.615 12.905L69.405 13.15L69.125 12.94C69.125 12.7533 69.1017 12.5667 69.055 12.38C69.0083 12.17 68.8567 11.925 68.6 11.645C68.1567 11.2017 67.6667 10.91 67.13 10.77C66.5933 10.6067 65.975 10.525 65.275 10.525C64.6917 10.525 64.1317 10.6533 63.595 10.91C63.0817 11.1433 62.615 11.4933 62.195 11.96C61.775 12.4033 61.4483 12.9633 61.215 13.64C60.9817 14.3167 60.865 15.0983 60.865 15.985C60.865 16.7783 60.9817 17.5017 61.215 18.155C61.4717 18.785 61.7983 19.3333 62.195 19.8C62.615 20.2433 63.0933 20.5933 63.63 20.85C64.19 21.0833 64.7733 21.2 65.38 21.2C65.87 21.2 66.3483 21.13 66.815 20.99C67.2817 20.85 67.7367 20.64 68.18 20.36C68.6467 20.0567 69.0783 19.66 69.475 19.17L71.68 21.69C70.8167 22.6467 69.8133 23.3467 68.67 23.79C67.5267 24.21 66.3717 24.42 65.205 24.42ZM81.34 16.615L80.045 17.91V24H76.02V0.515H80.01H80.325V0.829998C80.2083 0.969999 80.1267 1.12167 80.08 1.285C80.0567 1.44833 80.045 1.72833 80.045 2.125V13.605L86.275 7.585C86.4617 7.60833 86.66 7.64333 86.87 7.69C87.08 7.71333 87.29 7.73667 87.5 7.76C87.71 7.78333 87.92 7.80667 88.13 7.83C88.34 7.83 88.515 7.83 88.655 7.83H90.545L84.07 14.165L91.42 23.965L86.905 24.14L81.34 16.615Z" fill="black"/>
</svg>
